<svg xmlns="http://www.w3.org/2000/svg" width="204.67671mm" height="36.670189mm" viewBox="0 0 204.67671 36.670189"><defs><clipPath id="a" clipPathUnits="userSpaceOnUse"><path d="M-204.253 56.138h642.478V-110.1h-642.478Z"/></clipPath><clipPath id="b" clipPathUnits="userSpaceOnUse"><path d="M-244.287 117.811H398.19V-48.427h-642.478Z"/></clipPath><clipPath id="c" clipPathUnits="userSpaceOnUse"><path d="M-122.339 57.803H520.14v-166.238h-642.478Z"/></clipPath><clipPath id="d" clipPathUnits="userSpaceOnUse"><path d="M-104.023 102.548h642.478V-63.69h-642.478Z"/></clipPath><clipPath id="e" clipPathUnits="userSpaceOnUse"><path d="M0 166.238h642.478V0H0Z"/></clipPath><clipPath id="f" clipPathUnits="userSpaceOnUse"><path d="M-348.553 112.579h642.478V-53.66h-642.478Z"/></clipPath><clipPath id="g" clipPathUnits="userSpaceOnUse"><path d="M-363.188 56.099H279.29V-110.14h-642.478Z"/></clipPath><clipPath id="h" clipPathUnits="userSpaceOnUse"><path d="M0 166.238h642.478V0H0Z"/></clipPath><clipPath id="i" clipPathUnits="userSpaceOnUse"><path d="M-437.911 45.228h642.478V-121.01h-642.478Z"/></clipPath><clipPath id="j" clipPathUnits="userSpaceOnUse"><path d="M-384.725 59.39h642.478V-106.85h-642.478Z"/></clipPath><clipPath id="k" clipPathUnits="userSpaceOnUse"><path d="M-488.678 112.579H153.8V-53.66h-642.478Z"/></clipPath><clipPath id="l" clipPathUnits="userSpaceOnUse"><path d="M-473.259 71.282H169.22V-94.956h-642.478Z"/></clipPath><clipPath id="m" clipPathUnits="userSpaceOnUse"><path d="M-502.927 62.716h642.478v-166.238h-642.478Z"/></clipPath><clipPath id="n" clipPathUnits="userSpaceOnUse"><path d="M0 166.238h642.478V0H0Z"/></clipPath><clipPath id="o" clipPathUnits="userSpaceOnUse"><path d="M-352.734 77.963h642.478V-88.275h-642.478Z"/></clipPath></defs><path d="M0 0c.044.009 5.393.083 10.188-2.036 5.84-2.58 9.723-7.321 11.543-14.094h10.026C28.961-2.269 20.592 4.074 14.042 6.954 8.023 9.6 2.042 9.791.443 9.791c-.26 0-.404-.004-.414-.005-11.29 0-19.897-3.784-25.593-11.245-4.87-6.379-7.451-15.365-7.465-25.984.014-10.618 2.595-19.603 7.465-25.983C-19.868-60.887-11.261-64.67.019-64.671c.075-.002 7.025-.244 14.023 2.833 6.55 2.88 14.918 9.221 17.715 23.083H21.731c-1.821-6.773-5.704-11.514-11.543-14.094C5.393-54.968.041-54.891-.004-54.884c-12.16 0-16.415 5.575-17.813 7.407-3.558 4.659-5.444 11.586-5.457 20.034.013 8.449 1.899 15.377 5.457 20.035C-16.419-5.575-12.165 0 0 0" clip-path="url(#a)" style="fill:#002555;fill-opacity:1;fill-rule:nonzero;stroke:none" transform="matrix(.35278 0 0 -.35278 61.068 8.817)"/><path d="M0 0h53.817v9.175H9.635V30.96h38.492v9.175H9.635V60.01h44.182v9.175H0Z" clip-path="url(#b)" style="fill:#002555;fill-opacity:1;fill-rule:nonzero;stroke:none" transform="matrix(.35278 0 0 -.35278 75.191 30.574)"/><path d="M0 0h18.287v-50.803H0v-9.206h46.213v9.206H27.926V0h18.287v9.205H0Z" clip-path="url(#c)" style="fill:#002555;fill-opacity:1;fill-rule:nonzero;stroke:none" transform="matrix(.35278 0 0 -.35278 32.17 9.404)"/><path d="m0 0-36.824 53.937h-11.847v-69.201h9.639v54.229l37.053-54.229H9.639v69.201H0Z" clip-path="url(#d)" style="fill:#002555;fill-opacity:1;fill-rule:nonzero;stroke:none" transform="matrix(.35278 0 0 -.35278 25.71 25.189)"/><path d="M38.31 127.927h565.857V38.31H38.31Zm-7.164-96.782h580.186v103.947H31.146Z" clip-path="url(#e)" style="fill:#002555;fill-opacity:1;fill-rule:nonzero;stroke:none" transform="matrix(.35278 0 0 -.35278 -10.988 47.657)"/><path d="M0 0c-8.477 0-14.173 3.059-14.173 7.611 0 4.718 5.563 7.767 14.173 7.767s14.173-3.049 14.173-7.767C14.173 2.987 8.61 0 0 0m0 22.844c-14.137 0-23.273-5.979-23.273-15.233 0-9.299 8.918-15.077 23.273-15.077S23.274-1.688 23.274 7.611c0 9.396-8.919 15.233-23.274 15.233" clip-path="url(#f)" style="fill:#002555;fill-opacity:1;fill-rule:nonzero;stroke:none" transform="matrix(.35278 0 0 -.35278 111.974 28.728)"/><path d="M0 0h-10.423v-7.308H0v-6.32h-10.423v-7.308H0v-12.84h8.792V10.87H0Z" clip-path="url(#g)" style="fill:#002555;fill-opacity:1;fill-rule:nonzero;stroke:none" transform="matrix(.35278 0 0 -.35278 117.137 8.803)"/><path d="M350.748 116.205h-37.513v-7.466h37.513z" clip-path="url(#h)" style="fill:#002555;fill-opacity:1;fill-rule:nonzero;stroke:none" transform="matrix(.35278 0 0 -.35278 -10.988 47.657)"/><path d="M0 0h-8.946v-71.193H0v37.338h11.272v7.781H0Z" clip-path="url(#i)" style="fill:#002555;fill-opacity:1;fill-rule:nonzero;stroke:none" transform="matrix(.35278 0 0 -.35278 143.498 4.968)"/><path d="M0 0h24.38C23.015-14.919 12.286-28.469-3.669-35.403l-.218-.094L1.35-42.54l.094-.126.141.07c10.436 5.205 18.482 12.089 23.912 20.458 5.463 8.421 8.311 18.396 8.464 29.649l.003.191H0Z" clip-path="url(#j)" style="fill:#002555;fill-opacity:1;fill-rule:nonzero;stroke:none" transform="matrix(.35278 0 0 -.35278 124.735 9.964)"/><path d="M0 0c-8.599 0-13.941 3.037-13.941 7.925 0 5.035 5.342 8.162 13.941 8.162 8.694 0 14.095-3.127 14.095-8.162C14.095 3.037 8.694 0 0 0m0 23.631c-13.998 0-23.042-6.164-23.042-15.706 0-9.397 9.044-15.47 23.042-15.47 14.212 0 23.041 5.928 23.041 15.47S13.997 23.631 0 23.631" clip-path="url(#k)" style="fill:#002555;fill-opacity:1;fill-rule:nonzero;stroke:none" transform="matrix(.35278 0 0 -.35278 161.407 28.728)"/><path d="M0 0c3.329-7.059 10.642-12.346 16.512-14.485l.141-.051 4.692 7.263-.233.076C13.119-4.615 4.581 2.27 4.49 13.861h14.282v7.624H-19.59v-7.624h14.901v-.048c0-10.323-6.507-18.944-17.405-23.062l-.227-.086 5.012-7.094.138.055C-9.433-13.331-2.445-6.646 0 0" clip-path="url(#l)" style="fill:#002555;fill-opacity:1;fill-rule:nonzero;stroke:none" transform="matrix(.35278 0 0 -.35278 155.968 14.16)"/><path d="M0 0h-12.894v-7.545H0v-18.747h8.792v43.78H0Z" clip-path="url(#m)" style="fill:#002555;fill-opacity:1;fill-rule:nonzero;stroke:none" transform="matrix(.35278 0 0 -.35278 166.434 11.137)"/><path d="M538.737 97.79h30.198V86.666h-30.198zm19.534-18.591h19.533v37.636h-8.869v-11.58h-30.198v11.58h-8.869V79.199h19.457V65.79h-28.336v-7.545h65.694v7.545h-28.412z" clip-path="url(#n)" style="fill:#002555;fill-opacity:1;fill-rule:nonzero;stroke:none" transform="matrix(.35278 0 0 -.35278 -10.988 47.657)"/><path d="m0 0-.2-.038c-2.283-.423-5.031-.743-8.635-1.004l1.828 17.561h-8.619l-1.238-18.055-7.598-.226-.947 18.281h-8.773l1.616-18.37c-2.007-.046-3.976-.03-5.881-.011-.953.007-1.886.016-2.794.016h-.212l.974-7.78.165-.001a455 455 0 0 1 2.024-.005c14.93 0 29.665.923 38.85 2.449l.174.029z" clip-path="url(#o)" style="fill:#002555;fill-opacity:1;fill-rule:nonzero;stroke:none" transform="matrix(.35278 0 0 -.35278 113.449 16.516)"/></svg>
